<svg width="214" height="19" viewBox="0 0 214 19" fill="none" xmlns="http://www.w3.org/2000/svg">
<path d="M61.4033 17.9348H65.659V0H61.4033V17.9348Z" fill="white"/>
<path d="M89.74 12.0024L99.7036 0H94.1847L84.3032 11.9989H89.7346L89.74 12.0021V12.0024ZM73.3058 0H67.7856L81.5781 16.6097C82.1293 17.2775 82.7907 17.9348 83.752 17.9348C84.7092 17.9348 85.3612 17.2809 85.9098 16.6097L86.5175 15.8712L73.3058 0Z" fill="white"/>
<path d="M54.8228 11.4965C56.9923 10.789 58.0483 8.91294 58.0483 6.70589C58.0483 6.04036 58.0764 5.33285 58.0483 4.67815C57.8805 2.06974 56.1873 0 52.7941 0H31.3105V17.9348H35.7462V4.06925H51.6416C52.7941 4.06925 53.6126 4.48437 53.6126 5.90309C53.6126 7.3219 52.7123 7.70893 51.6416 7.70893H39.8331L37.4502 11.7923H49.8504L52.9377 17.8575H58.0523L54.8268 11.5002L54.8228 11.4966V11.4965Z" fill="white"/>
<path d="M106.283 4.15495H126.469L128.582 0H101.832V17.9348H127.985V13.836H106.283V4.15495ZM126.469 10.9847V6.84737H110.422L107.985 10.9847H126.472H126.469Z" fill="white"/>
<path d="M212.892 0H136.683C136.406 0 136.181 0.276259 136.181 0.617159V17.6215C136.181 17.9624 136.406 18.2388 136.683 18.2388H212.892C213.168 18.2388 213.392 17.9624 213.392 17.6215V0.617159C213.392 0.276259 213.168 0 212.892 0Z" fill="#BCED0A"/>
<path d="M21.2601 18.2388H21.2695H21.2911C22.5419 18.2311 24.73 17.4831 26.0686 15.9346C27.1573 14.6747 27.6638 12.7692 27.6638 11.1592V7.06739C27.6638 3.18742 25.3257 0 20.4145 0H4.25732V4.1531H18.587C20.6576 4.1531 23.1686 4.56205 23.1686 7.84632V12.4499C23.1686 15.2027 21.4046 15.8776 19.6149 16.024H16.8203L21.2596 18.2388H21.2601Z" fill="#BCED0A"/>
<path fill-rule="evenodd" clip-rule="evenodd" d="M0.304247 4.25217H4.25572V13.9795H0.304247C0.138616 13.9795 0.00213717 13.8441 0 13.678V4.55371C0.00213717 4.38771 0.138616 4.25217 0.304247 4.25217Z" fill="#BCED0A"/>
<path d="M12.7688 13.9834H4.25732V18.2391H12.7688V13.9834Z" fill="#BCED0A"/>
<path fill-rule="evenodd" clip-rule="evenodd" d="M12.7661 13.9834L21.2776 18.2391H19.7024H12.7661V13.9834Z" fill="#81A306"/>
<path d="M143.189 14.8135V6.55196H145.482V14.8135H143.189ZM143.172 5.18827V3.37527H145.497V5.18827H143.172ZM147.223 14.8135V11.3205L149.506 8.39325H147.223V6.5514H154.327C155.255 6.5514 155.933 6.78381 156.36 7.24902C156.787 7.71429 157.001 8.32629 157.001 9.08611V14.8129H154.707V9.35862C154.707 8.71724 154.39 8.39598 153.757 8.39598H149.517V14.8129H147.223V14.8135ZM168.441 14.8135C167.522 14.8135 166.848 14.5812 166.415 14.1159C165.983 13.6505 165.767 13.0386 165.767 12.2789V11.3369L168.061 8.39697V11.9902C168.061 12.6423 168.376 12.969 169.01 12.969H171.89V14.814H168.441V14.8135ZM165.767 8.39697H163.41V6.55196H165.767V4.01733H168.061V6.55196H171.447V8.39697H168.061H165.767ZM177.254 14.8938C175.84 14.8938 174.737 14.5383 173.946 13.8268C173.155 13.1157 172.76 12.07 172.76 10.6902C172.76 9.2998 173.155 8.24919 173.946 7.53822C174.737 6.82715 175.84 6.47156 177.254 6.47156H181.209C182.137 6.47156 182.846 6.69327 183.337 7.13718C183.828 7.58098 184.073 8.21501 184.073 9.03844C184.073 10.7175 183.118 11.557 181.209 11.557H175.23L176.67 9.712H181.098C181.31 9.712 181.475 9.64773 181.596 9.51932C181.718 9.39075 181.779 9.21452 181.779 8.98971C181.779 8.5405 181.552 8.31621 181.099 8.31621H177.254C176.167 8.31621 175.497 8.78152 175.245 9.712L175.229 11.557C175.45 12.5519 176.126 13.0488 177.254 13.0488H183.662V14.8938H177.254ZM189.673 14.8938C188.26 14.8938 187.158 14.5383 186.367 13.8268C185.576 13.1157 185.181 12.07 185.181 10.6902C185.181 9.2998 185.576 8.24919 186.367 7.53822C187.158 6.82715 188.26 6.47156 189.673 6.47156H194.974V8.31677H189.673C188.988 8.31677 188.463 8.50941 188.099 8.89439C187.735 9.27937 187.554 9.87854 187.554 10.6914C187.554 11.4934 187.735 12.0871 188.099 12.4721C188.463 12.8571 188.988 13.0499 189.673 13.0499H195.133V14.8949H189.673V14.8938ZM196.319 14.8135V11.3375L198.613 8.39747V14.814H196.319V14.8135ZM196.319 8.39697V3.34369H198.613V6.55196H203.422C204.352 6.55196 205.028 6.78438 205.456 7.24954C205.883 7.71486 206.096 8.3268 206.096 9.08667V14.8135H203.802V9.35915C203.802 8.71781 203.487 8.39638 202.853 8.39638H198.613H196.319V8.39697Z" fill="#1E1E1E"/>
</svg>
