<svg width="39" height="45" viewBox="0 0 39 45" fill="none" xmlns="http://www.w3.org/2000/svg">
<path d="M28.131 15.6273C27.2547 15.855 26.512 16.4422 26.0934 17.2388C26.0417 17.3373 25.9954 17.438 25.9545 17.5403C25.1672 16.8359 24.076 16.522 23.0342 16.7924C22.1579 17.0201 21.4152 17.6073 20.9966 18.4039C20.9449 18.5024 20.8986 18.6031 20.8577 18.7054C20.1704 18.0906 19.2515 17.7734 18.3361 17.8826C19.269 15.8972 19.4165 13.5732 18.6373 11.4327C17.0549 7.08569 12.2309 4.83637 7.88375 6.41874C3.53661 8.00111 1.28736 12.8251 2.86973 17.1723C4.03067 20.3616 7.02848 22.5423 10.3979 22.6866L11.6304 26.0725L10.0059 28.4396C9.04348 29.8421 9.1073 31.6796 10.1647 33.0119L14.694 38.7192C16.595 41.1142 19.8027 42.0208 22.676 40.9749L31.69 37.6938C35.3652 36.356 37.2667 32.2778 35.929 28.6027L31.9744 17.7386C31.3946 16.1457 29.7064 15.2184 28.131 15.6273ZM4.01227 16.7564C2.65925 13.0393 4.58258 8.91438 8.29966 7.56135C12.0167 6.20833 16.1417 8.13167 17.4947 11.8487C18.4286 14.4145 17.8068 17.2886 15.9585 19.241L15.4148 17.7472C16.5606 16.1928 16.8644 14.146 16.1998 12.3201C15.1067 9.31705 11.7741 7.76315 8.77101 8.85627C5.76797 9.94938 4.21407 13.282 5.30719 16.285C5.97178 18.1108 7.52033 19.4835 9.39724 19.9376L9.94097 21.4314C7.27023 21.124 4.94617 19.322 4.01227 16.7564ZM9.95697 11.201C9.08061 11.4286 8.33796 12.0157 7.91946 12.8124C7.50055 13.6096 7.43684 14.552 7.74471 15.3978L8.86408 18.4729C7.75708 17.9689 6.87467 17.0363 6.4498 15.8691C5.586 13.4961 6.81388 10.8627 9.18693 9.99888C11.56 9.13508 14.1934 10.363 15.0572 12.736C15.4821 13.9034 15.4056 15.1849 14.8816 16.2826L13.8004 13.3122C13.2206 11.7192 11.5324 10.7918 9.95697 11.201ZM31.2741 36.5511L22.26 39.8323C19.8792 40.6989 17.2214 39.9478 15.6464 37.9633L11.1171 32.256C10.3935 31.3445 10.3499 30.0873 11.0085 29.1277L12.1415 27.4767L13.9556 32.4604C14.0704 32.7759 14.4192 32.9387 14.7348 32.8238C15.0504 32.7089 15.213 32.3601 15.0982 32.0445L8.88733 14.9818C8.69634 14.4572 8.73589 13.8725 8.99579 13.378C9.25922 12.8768 9.70945 12.5214 10.2626 12.3779C11.238 12.1246 12.2901 12.7176 12.6579 13.728L17.0561 25.8108C17.1709 26.1263 17.5197 26.289 17.8353 26.1741C18.1509 26.0593 18.3135 25.7104 18.1987 25.3949L16.8678 21.7386C16.6768 21.2139 16.7164 20.6293 16.9763 20.1348C17.2396 19.6336 17.6892 19.278 18.2431 19.1347C19.2184 18.8814 20.2706 19.4745 20.6383 20.4849L20.822 20.9894L22.1529 24.6457C22.2677 24.9612 22.6165 25.1239 22.9321 25.009C23.2478 24.8941 23.4103 24.5453 23.2955 24.2298L21.9646 20.5735C21.7736 20.0488 21.8132 19.4642 22.0731 18.9697C22.3364 18.4685 22.786 18.1129 23.3399 17.9696C24.3152 17.7163 25.3674 18.3094 25.7351 19.3198L25.9187 19.8242L27.2496 23.4804C27.3645 23.7959 27.7133 23.9587 28.0289 23.8438C28.3445 23.7289 28.5071 23.3801 28.3922 23.0645L27.0614 19.4083C26.8704 18.8836 26.9099 18.299 27.1698 17.8045C27.4332 17.3033 27.8827 16.9477 28.4366 16.8043C29.412 16.5511 30.4641 17.1442 30.8319 18.1545L34.7864 29.0184L34.7866 29.0184C35.8948 32.0636 34.3192 35.4427 31.2741 36.5511Z" fill="white"/>
</svg>
