<svg width="40" height="40" viewBox="0 0 40 40" fill="none" xmlns="http://www.w3.org/2000/svg">
<path d="M28.9598 30.9996H28.9712H28.9973C30.5059 30.9904 33.1453 30.0881 34.7598 28.2202C36.073 26.7006 36.684 24.4022 36.684 22.4602V17.5247C36.684 12.8447 33.8637 9.00003 27.9399 9.00003H8.45117V14.0095H25.7356C28.2332 14.0095 31.2619 14.5028 31.2619 18.4642V24.017C31.2619 27.3375 29.1341 28.1515 26.9754 28.3281H23.6045L28.9592 30.9996H28.9598Z" fill="#BCED0A"/>
<path fill-rule="evenodd" clip-rule="evenodd" d="M3.68339 14.129H8.44964V25.8621H3.68339C3.4836 25.8621 3.31898 25.6988 3.31641 25.4983V14.4927C3.31898 14.2925 3.4836 14.129 3.68339 14.129Z" fill="#BCED0A"/>
<path d="M18.7176 25.8668H8.45117V31H18.7176V25.8668Z" fill="#BCED0A"/>
<path fill-rule="evenodd" clip-rule="evenodd" d="M18.7134 25.8668L28.9798 31H27.0798H18.7134V25.8668Z" fill="#81A306"/>
</svg>
