<svg width="17" height="17" viewBox="0 0 17 17" fill="none" xmlns="http://www.w3.org/2000/svg">
<path fill-rule="evenodd" clip-rule="evenodd" d="M12.4861 12.4859C12.7384 12.2336 13.1474 12.2336 13.3996 12.4859L16.811 15.8972C17.0633 16.1495 17.0633 16.5585 16.811 16.8108C16.5587 17.0631 16.1497 17.0631 15.8974 16.8108L12.4861 13.3995C12.2338 13.1472 12.2338 12.7382 12.4861 12.4859Z" fill="#858585"/>
<path fill-rule="evenodd" clip-rule="evenodd" d="M7.53646 1.29197C4.08772 1.29197 1.29197 4.08772 1.29197 7.53646C1.29197 10.9852 4.08772 13.781 7.53646 13.781C10.9852 13.781 13.781 10.9852 13.781 7.53646C13.781 4.08772 10.9852 1.29197 7.53646 1.29197ZM0 7.53646C0 3.37419 3.37419 0 7.53646 0C11.6987 0 15.0729 3.37419 15.0729 7.53646C15.0729 11.6987 11.6987 15.0729 7.53646 15.0729C3.37419 15.0729 0 11.6987 0 7.53646Z" fill="#858585"/>
</svg>
